<?xml version="1.0" encoding="utf-8"?>
<!-- Generator: Adobe Illustrator 15.0.0, SVG Export Plug-In  -->
<!DOCTYPE svg PUBLIC "-//W3C//DTD SVG 1.1//EN" "http://www.w3.org/Graphics/SVG/1.1/DTD/svg11.dtd" [
	<!ENTITY ns_flows "http://ns.adobe.com/Flows/1.0/">
]>
<svg version="1.1"
	 xmlns="http://www.w3.org/2000/svg" xmlns:xlink="http://www.w3.org/1999/xlink" xmlns:a="http://ns.adobe.com/AdobeSVGViewerExtensions/3.0/"
	 x="0px" y="0px" width="193px" height="72px" viewBox="0 -0.5 193 72" enable-background="new 0 -0.5 193 72" xml:space="preserve"
	>
<defs>
</defs>
<path fill="#187190" d="M34.384,70.326c-1.556,0.898-4.101,0.898-5.655,0L2.827,55.362C1.273,54.466,0,52.261,0,50.464V20.537
	c0-1.797,1.273-4.002,2.827-4.899L28.729,0.674c1.555-0.898,4.099-0.898,5.655,0l25.901,14.964c1.556,0.897,2.828,3.102,2.828,4.899
	v29.927c0,1.797-1.271,4.002-2.828,4.898L34.384,70.326z"/>
<path fill="#FFFFFF" d="M21.477,29.187v9.53c0,1.744-0.431,3.069-1.283,3.943c-0.85,0.874-2.017,1.314-3.469,1.314
	c-1.512,0-2.705-0.466-3.548-1.383c-0.845-0.92-1.272-2.262-1.272-3.991v-9.414H9.898v9.53c0,1.148,0.165,2.181,0.488,3.068
	c0.326,0.893,0.793,1.647,1.389,2.249c0.596,0.602,1.32,1.063,2.148,1.366c0.827,0.304,1.752,0.458,2.755,0.458
	c1.018,0,1.952-0.154,2.779-0.458c0.829-0.305,1.552-0.77,2.15-1.378c0.596-0.609,1.063-1.38,1.388-2.282
	c0.323-0.903,0.488-1.968,0.488-3.163v-9.391H21.477z"/>
<polygon fill="#FFFFFF" points="32.704,36.382 39.695,29.187 37.085,29.187 27.986,38.732 27.986,29.187 25.98,29.187 25.98,45.604 
	27.986,45.604 27.986,41.19 31.307,37.794 37.419,45.566 37.447,45.604 39.965,45.604 "/>
<path fill="#FFFFFF" d="M53.644,32.233c-0.289-0.644-0.708-1.198-1.243-1.646c-0.535-0.446-1.188-0.794-1.939-1.037
	c-0.749-0.241-1.589-0.364-2.499-0.364h-6.116v16.418h2.006v-5.727h3.811c0.863,0,1.691-0.115,2.462-0.34
	c0.773-0.227,1.462-0.571,2.043-1.025c0.583-0.453,1.049-1.021,1.393-1.688c0.342-0.67,0.516-1.459,0.516-2.351v-0.047
	C54.077,33.616,53.931,32.877,53.644,32.233 M47.743,38.041h-3.891v-6.972h3.983c1.278,0,2.315,0.295,3.087,0.877
	c0.762,0.575,1.148,1.438,1.148,2.564v0.044c0,0.527-0.101,1.007-0.302,1.424c-0.2,0.422-0.494,0.789-0.872,1.097
	c-0.38,0.308-0.842,0.549-1.373,0.717C48.99,37.956,48.391,38.041,47.743,38.041"/>
<path fill="#187190" d="M76.092,30.279h2.417c1.641,0,2.447,0.909,2.447,2.582v1.028c0,1.671-0.806,2.58-2.447,2.58h-0.776v4.252
	h-1.641V30.279z M78.509,34.979c0.521,0,0.806-0.239,0.806-0.985v-1.239c0-0.746-0.284-0.983-0.806-0.983h-0.776v3.208H78.509z"/>
<path fill="#187190" d="M82.596,30.278h2.223l1.701,10.442h-1.641l-0.298-2.072v0.03h-1.865l-0.298,2.042h-1.522L82.596,30.278z
	 M84.387,37.261l-0.73-5.162h-0.031l-0.716,5.162H84.387z"/>
<path fill="#187190" d="M87.31,30.278h2.432c1.701,0,2.432,0.79,2.432,2.403v0.64c0,1.075-0.343,1.762-1.074,2.06v0.029
	c0.821,0.254,1.088,1.031,1.088,2.209v1.834c0,0.507,0.015,0.882,0.18,1.268h-1.672c-0.088-0.269-0.148-0.432-0.148-1.282v-1.909
	c0-0.969-0.284-1.284-1.03-1.284H88.95v4.476H87.31V30.278z M89.547,34.755c0.612,0,0.985-0.27,0.985-1.104v-0.805
	c0-0.747-0.254-1.074-0.836-1.074H88.95v2.983H89.547z"/>
<polygon fill="#187190" points="94.574,31.771 92.858,31.771 92.858,30.279 97.931,30.279 97.931,31.771 96.215,31.771 
	96.215,40.721 94.574,40.721 "/>
<path fill="#187190" d="M100.988,38.246v-5.492c0-1.671,0.88-2.625,2.491-2.625s2.491,0.955,2.491,2.625v5.492
	c0,1.67-0.88,2.626-2.491,2.626S100.988,39.916,100.988,38.246 M104.33,38.35v-5.699c0-0.746-0.328-1.03-0.851-1.03
	s-0.851,0.284-0.851,1.03v5.699c0,0.745,0.328,1.029,0.851,1.029S104.33,39.095,104.33,38.35"/>
<polygon fill="#187190" points="107.073,30.278 111.414,30.278 111.414,31.771 108.715,31.771 108.715,34.679 110.833,34.679 
	110.833,36.171 108.715,36.171 108.715,40.722 107.073,40.722 "/>
<path fill="#187190" d="M114.59,30.278h2.432c1.7,0,2.433,0.79,2.433,2.403v0.64c0,1.075-0.344,1.762-1.073,2.06v0.029
	c0.819,0.254,1.088,1.031,1.088,2.209v1.834c0,0.507,0.015,0.882,0.18,1.268h-1.673c-0.088-0.269-0.147-0.432-0.147-1.282v-1.909
	c0-0.969-0.283-1.284-1.03-1.284h-0.567v4.476h-1.641V30.278z M116.828,34.755c0.612,0,0.984-0.27,0.984-1.104v-0.805
	c0-0.747-0.253-1.074-0.836-1.074h-0.746v2.983H116.828z"/>
<path fill="#187190" d="M120.542,38.245v-7.967h1.641v8.087c0,0.745,0.313,1.015,0.836,1.015c0.521,0,0.837-0.27,0.837-1.015v-8.087
	h1.579v7.967c0,1.671-0.835,2.625-2.447,2.625C121.378,40.87,120.542,39.916,120.542,38.245"/>
<path fill="#187190" d="M126.598,30.279h2.507c1.642,0,2.446,0.91,2.446,2.581v5.281c0,1.671-0.805,2.58-2.446,2.58h-2.507V30.279z
	 M129.074,39.229c0.522,0,0.836-0.268,0.836-1.016v-5.428c0-0.748-0.313-1.015-0.836-1.015h-0.835v7.458H129.074z"/>
<polygon fill="#187190" points="132.654,30.278 134.296,30.278 134.296,34.53 136.056,34.53 136.056,30.278 137.697,30.278 
	137.697,40.722 136.056,40.722 136.056,36.021 134.296,36.021 134.296,40.722 132.654,40.722 "/>
<path fill="#187190" d="M138.8,38.246v-5.492c0-1.671,0.879-2.625,2.49-2.625c1.612,0,2.492,0.955,2.492,2.625v5.492
	c0,1.67-0.88,2.626-2.492,2.626C139.679,40.872,138.8,39.916,138.8,38.246 M142.141,38.35v-5.699c0-0.746-0.328-1.03-0.851-1.03
	c-0.521,0-0.85,0.284-0.85,1.03v5.699c0,0.745,0.328,1.029,0.85,1.029C141.813,39.379,142.141,39.095,142.141,38.35"/>
<polygon fill="#187190" points="144.886,30.278 146.526,30.278 146.526,39.229 149.227,39.229 149.227,40.722 144.886,40.722 "/>
<polygon fill="#187190" points="150.018,30.278 152.36,30.278 153.404,37.753 153.433,37.753 154.478,30.278 156.821,30.278 
	156.821,40.722 155.268,40.722 155.268,32.814 155.239,32.814 154.045,40.722 152.673,40.722 151.479,32.814 151.449,32.814 
	151.449,40.722 150.018,40.722 "/>
<path fill="#187190" d="M160.31,38.245v-5.49c0-1.671,0.836-2.626,2.444-2.626c1.613,0,2.448,0.955,2.448,2.626v0.896h-1.551v-1
	c0-0.746-0.33-1.029-0.852-1.029s-0.85,0.283-0.85,1.029v5.715c0,0.745,0.328,1.015,0.85,1.015s0.852-0.27,0.852-1.015V36.32h-0.82
	v-1.491h2.371v3.416c0,1.671-0.835,2.625-2.448,2.625C161.146,40.87,160.31,39.916,160.31,38.245"/>
<path fill="#187190" d="M166.262,30.278h2.43c1.702,0,2.432,0.79,2.432,2.403v0.64c0,1.075-0.343,1.762-1.072,2.06v0.029
	c0.82,0.254,1.09,1.031,1.09,2.209v1.834c0,0.507,0.013,0.882,0.177,1.268h-1.67c-0.088-0.269-0.148-0.432-0.148-1.282v-1.909
	c0-0.969-0.285-1.284-1.029-1.284h-0.567v4.476h-1.641V30.278z M168.499,34.755c0.611,0,0.983-0.27,0.983-1.104v-0.805
	c0-0.747-0.254-1.074-0.836-1.074h-0.744v2.983H168.499z"/>
<path fill="#187190" d="M172.153,38.246v-5.492c0-1.671,0.88-2.625,2.49-2.625c1.613,0,2.492,0.955,2.492,2.625v5.492
	c0,1.67-0.879,2.626-2.492,2.626C173.033,40.872,172.153,39.916,172.153,38.246 M175.495,38.35v-5.699
	c0-0.746-0.329-1.03-0.852-1.03c-0.521,0-0.849,0.284-0.849,1.03v5.699c0,0.745,0.327,1.029,0.849,1.029
	C175.166,39.379,175.495,39.095,175.495,38.35"/>
<path fill="#187190" d="M178.179,38.245v-7.967h1.642v8.087c0,0.745,0.313,1.015,0.835,1.015c0.521,0,0.837-0.27,0.837-1.015v-8.087
	h1.581v7.967c0,1.671-0.837,2.625-2.448,2.625C179.015,40.87,178.179,39.916,178.179,38.245"/>
<path fill="#187190" d="M184.235,30.279h2.417c1.641,0,2.445,0.909,2.445,2.582v1.028c0,1.671-0.805,2.58-2.445,2.58h-0.776v4.252
	h-1.641V30.279z M186.652,34.979c0.521,0,0.806-0.239,0.806-0.985v-1.239c0-0.746-0.285-0.983-0.806-0.983h-0.776v3.208H186.652z"/>
</svg>
